<?xml version="1.0" encoding="UTF-8"?>
<svg id="Layer_1" xmlns="http://www.w3.org/2000/svg" version="1.1" viewBox="0 0 28 28">
  <!-- Generator: Adobe Illustrator 29.1.0, SVG Export Plug-In . SVG Version: 2.1.0 Build 142)  -->
  <defs>
    <style>
      .st0 {
        fill: #fff;
      }

      .st1 {
        fill: #1e2856;
      }

      .st2 {
        fill: #1f91ce;
      }
    </style>
  </defs>
  <path class="st0" d="M14,0h0c7.7,0,14,6.3,14,14h0c0,7.7-6.3,14-14,14h0C6.3,28,0,21.7,0,14h0C0,6.3,6.3,0,14,0Z"/>
  <g>
    <path class="st1" d="M17.5,6.8c3.7,0,6.8,1.2,7,2.9h0c0-2.3-3.1-4.1-7-4-.8,0-1.6,0-2.3.2l1,1h1.3"/>
    <path class="st1" d="M24.5,12.5h0c0-.4,0-.7-.2-1,0,0,0,.2-.1.3.2.3.3.5.3.8"/>
    <path class="st1" d="M24.1,14.4c.2.3.3.5.3.8h0c0-.4,0-.7-.2-1,0,0,0,.2-.1.3"/>
    <path class="st2" d="M17.6,17.2c-3.8,0-6.9-1.7-7-3.9h0c.2,1.5,3.2,2.8,7,2.8s3.4-.3,4.6-.8l.5-.5c.4-.4.4-1,0-1.3l-.2-.2c-1.2.7-3,1.2-4.9,1.2-3.8,0-6.9-1.7-7-3.9h0c.2,1.5,3.2,2.8,7,2.8s3.1-.3,4.2-.7L13.8,4.7c-.4-.4-1-.4-1.3,0L3.8,13.3c-.4.4-.4,1,0,1.3l8.8,8.8c.4.4,1,.4,1.3,0l3.5-3.5c-3.7,0-6.7-1.7-6.8-3.9h0c.2,1.5,3.2,2.8,7,2.8h1l2-2c-.9.3-1.9.4-3,.4"/>
    <path class="st1" d="M10.7,16c0,.2,0,.3.1.5.7,1.4,3.5,2.4,6.8,2.3,3,0,5.5-.9,6.5-2.1.2-.4.4-.9.4-1.3h0c-.1,1.5-3.1,2.9-6.9,2.9s-6.8-1.2-7-2.9h0v.5h0"/>
    <path class="st1" d="M24.5,12.4c0,.4-.2.8-.6,1.1-.2-.3-.5-.5-.8-.8-.2.1-.4.3-.6.4l.2.2h0c.3.2.6.3.8.5-1.2.9-3.4,1.6-6,1.6-3.7,0-6.8-1.2-7-2.9h0v.5h0c0,.2,0,.3.1.5.7,1.4,3.5,2.4,6.8,2.3,3,0,5.5-.9,6.5-2.1.2-.4.4-.9.4-1.3h0"/>
    <path class="st1" d="M24.1,11.1c.2-.4.4-.8.4-1.3h0c0,.3-.2.7-.6,1-1-1.4-3.4-2.3-6.1-2.4l1.3,1.3c1.9.2,3.6.7,4.5,1.4-.5.4-1.1.7-1.8.9-.2,0-.5-.2-.7-.3l.4.4c-1.1.3-2.4.6-3.9.6-3.7,0-6.8-1.2-7-2.9h0v.5h0c0,.2,0,.3.1.4.7,1.4,3.5,2.4,6.8,2.3,1.6,0,3.1-.3,4.2-.7h.2s.2,0,.2-.1c.8-.3,1.4-.7,1.8-1.2h.2Z"/>
  </g>
</svg>