<?xml version="1.0" encoding="UTF-8"?>
<svg id="Layer_1" xmlns="http://www.w3.org/2000/svg" version="1.1" xmlns:xlink="http://www.w3.org/1999/xlink" viewBox="0 0 32 32">
  <!-- Generator: Adobe Illustrator 29.1.0, SVG Export Plug-In . SVG Version: 2.1.0 Build 142)  -->
  <defs>
    <style>
      .st0 {
        fill: #fff;
      }

      .st1 {
        fill: none;
      }

      .st2 {
        fill: #136ef6;
      }

      .st3 {
        fill: url(#linear-gradient);
        fill-rule: evenodd;
      }
    </style>
    <linearGradient id="linear-gradient" x1="19" y1="57.6" x2="11.5" y2="53.6" gradientTransform="translate(0 33) scale(1 -1)" gradientUnits="userSpaceOnUse">
      <stop offset="0" stop-color="#9969e8"/>
      <stop offset="1" stop-color="#ffa0d2" stop-opacity=".3"/>
    </linearGradient>
  </defs>
  <path class="st1" d="M16,0h0c8.8,0,16,7.2,16,16s-7.2,16-16,16S0,24.8,0,16,7.2,0,16,0Z"/>
  <path class="st2" d="M16,0h0c8.8,0,16,7.2,16,16h0c0,8.8-7.2,16-16,16h0C7.2,32,0,24.8,0,16h0C0,7.2,7.2,0,16,0Z"/>
  <path class="st3" d="M19.9-25c.2.5,0,1.1-.4,1.3,0,0,0,0,0,0l-9.3,3.6c-.5.2.2.5,0,0-.2-.5-.5.2,0,0l8.4-5.3c.5-.2,1.1,0,1.3.4Z"/>
  <path class="st0" d="M17.9,6.9l-8.9,11.4s0,.1,0,.2v1.3c0,.1.1.3.3.3h7.9c.1,0,.3.1.3.3v4.6c0,.1.1.3.3.3h1.7c.1,0,.3-.1.3-.3V7c0-.1-.1-.3-.3-.3h-1.3c0,0-.2,0-.2.1ZM12,17.5l5-6.4c.2-.2.5,0,.5.2v6.4c0,.1-.1.3-.3.3h-5c-.2,0-.4-.3-.2-.4Z"/>
</svg>